# xmcd CD database file
#
# Track frame offsets:
#	150
#	25842
#	51725
#	73237
#	99312
#	124602
#	142975
#	162397
#	187270
#
# Disc length: 2583 seconds
#
# Revision: 0
# Processed by: cddbd v1.5.1PL0 Copyright (c) Steve Scherf et al.
# Submitted via: CDex 1.51
#
DISCID=850a1509
DTITLE=松永　　貴志 - TAKASHI　introducing Takashi Matsunaga
DYEAR=1900
DGENRE=Jazz
TTITLE0=HOMEWORK
TTITLE1=HIGH IN THE SKY
TTITLE2=BEAUTIFUL LOVE
TTITLE3=MELON
TTITLE4=CARAVAN
TTITLE5=NIGHT RIVER
TTITLE6=TESTERDAYS
TTITLE7=HIGHWAY BLUES
TTITLE8=A CHILD IS BORN
EXTD=
EXTT0=
EXTT1=
EXTT2=
EXTT3=
EXTT4=
EXTT5=
EXTT6=
EXTT7=
EXTT8=
PLAYORDER=
